<?xml version="1.0" encoding="UTF-8" standalone="no"?>
<!DOCTYPE svg PUBLIC "-//W3C//DTD SVG 1.1//EN" "http://www.w3.org/Graphics/SVG/1.1/DTD/svg11.dtd">
<svg width="100%" height="100%" viewBox="0 0 1080 1080" version="1.1" xmlns="http://www.w3.org/2000/svg" xmlns:xlink="http://www.w3.org/1999/xlink" xml:space="preserve" xmlns:serif="http://www.serif.com/" style="fill-rule:evenodd;clip-rule:evenodd;stroke-linejoin:round;stroke-miterlimit:2;">
    <g transform="matrix(1,0,0,1,17.5233,0)">
        <g transform="matrix(0.921599,0,0,1.00258,9.12318,40.5447)">
            <rect x="116.366" y="149.07" width="162.761" height="698.197"/>
        </g>
        <g transform="matrix(1.26729,0,0,0.808288,-33.0314,69.5082)">
            <rect x="117.887" y="149.07" width="378.761" height="185.577"/>
        </g>
        <g transform="matrix(0.852853,0,0,1.12058,17.123,-0.340936)">
            <rect x="116.366" y="415.268" width="281.408" height="133.859"/>
        </g>
    </g>
    <g>
        <g transform="matrix(0.913066,0,0,0.876543,-30.1388,21.3333)">
            <ellipse cx="624.423" cy="591.718" rx="109.521" ry="114.085"/>
        </g>
        <g transform="matrix(0.913066,0,0,0.876543,216.608,-253.667)">
            <ellipse cx="624.423" cy="591.718" rx="109.521" ry="114.085"/>
        </g>
        <g transform="matrix(0.913066,0,0,0.876543,216.608,21.3333)">
            <ellipse cx="624.423" cy="591.718" rx="109.521" ry="114.085"/>
        </g>
        <g transform="matrix(0.913066,0,0,0.876543,-30.1388,296.333)">
            <ellipse cx="624.423" cy="591.718" rx="109.521" ry="114.085"/>
        </g>
    </g>
</svg>
